<mxfile host="app.diagrams.net" modified="2023-10-01T16:25:31.569Z" agent="Mozilla/5.0 (Windows NT 10.0; Win64; x64) AppleWebKit/537.36 (KHTML, like Gecko) Chrome/117.0.0.0 Safari/537.36" etag="E9LmZQhe1jDh1rM6WjzE" version="22.0.0" type="device">
  <diagram name="Страница 1" id="Y0DewkHzvGT5xKBXIFuD">
    <mxGraphModel dx="1395" dy="667" grid="1" gridSize="10" guides="1" tooltips="1" connect="1" arrows="1" fold="1" page="1" pageScale="1" pageWidth="827" pageHeight="1169" math="0" shadow="0">
      <root>
        <mxCell id="0" />
        <mxCell id="1" parent="0" />
        <mxCell id="t63ynqAqvGX-83WkG_3k-17" style="edgeStyle=orthogonalEdgeStyle;rounded=0;orthogonalLoop=1;jettySize=auto;html=1;exitX=0.724;exitY=1.01;exitDx=0;exitDy=0;exitPerimeter=0;entryX=0.5;entryY=0;entryDx=0;entryDy=0;" parent="1" source="t63ynqAqvGX-83WkG_3k-37" target="JCwZHBCJcjAVJVvUWBcN-5" edge="1">
          <mxGeometry relative="1" as="geometry" />
        </mxCell>
        <mxCell id="t63ynqAqvGX-83WkG_3k-18" value="Extends" style="edgeLabel;html=1;align=center;verticalAlign=middle;resizable=0;points=[];" parent="t63ynqAqvGX-83WkG_3k-17" vertex="1" connectable="0">
          <mxGeometry x="-0.1116" y="2" relative="1" as="geometry">
            <mxPoint as="offset" />
          </mxGeometry>
        </mxCell>
        <mxCell id="t63ynqAqvGX-83WkG_3k-10" style="edgeStyle=orthogonalEdgeStyle;rounded=0;orthogonalLoop=1;jettySize=auto;html=1;exitX=0.271;exitY=0.99;exitDx=0;exitDy=0;exitPerimeter=0;entryX=0.5;entryY=0;entryDx=0;entryDy=0;" parent="1" source="t63ynqAqvGX-83WkG_3k-37" target="JCwZHBCJcjAVJVvUWBcN-1" edge="1">
          <mxGeometry relative="1" as="geometry">
            <mxPoint x="398.5" y="20" as="targetPoint" />
          </mxGeometry>
        </mxCell>
        <mxCell id="t63ynqAqvGX-83WkG_3k-11" value="Extends" style="edgeLabel;html=1;align=center;verticalAlign=middle;resizable=0;points=[];" parent="t63ynqAqvGX-83WkG_3k-10" vertex="1" connectable="0">
          <mxGeometry x="-0.0476" y="-2" relative="1" as="geometry">
            <mxPoint as="offset" />
          </mxGeometry>
        </mxCell>
        <mxCell id="t63ynqAqvGX-83WkG_3k-34" value="Animals &lt;br&gt;(abstract)" style="swimlane;fontStyle=1;align=center;verticalAlign=top;childLayout=stackLayout;horizontal=1;startSize=40;horizontalStack=0;resizeParent=1;resizeParentMax=0;resizeLast=0;collapsible=1;marginBottom=0;whiteSpace=wrap;html=1;" parent="1" vertex="1">
          <mxGeometry x="308.5" y="20" width="210" height="230" as="geometry">
            <mxRectangle x="290" y="230" width="100" height="40" as="alternateBounds" />
          </mxGeometry>
        </mxCell>
        <mxCell id="t63ynqAqvGX-83WkG_3k-35" value="id: int&lt;br&gt;name: string&lt;br&gt;birthady: datetime&lt;br&gt;class: string&lt;br&gt;commands: arraylist" style="text;strokeColor=none;fillColor=none;align=left;verticalAlign=top;spacingLeft=4;spacingRight=4;overflow=hidden;rotatable=0;points=[[0,0.5],[1,0.5]];portConstraint=eastwest;whiteSpace=wrap;html=1;" parent="t63ynqAqvGX-83WkG_3k-34" vertex="1">
          <mxGeometry y="40" width="210" height="80" as="geometry" />
        </mxCell>
        <mxCell id="t63ynqAqvGX-83WkG_3k-36" value="" style="line;strokeWidth=1;fillColor=none;align=left;verticalAlign=middle;spacingTop=-1;spacingLeft=3;spacingRight=3;rotatable=0;labelPosition=right;points=[];portConstraint=eastwest;strokeColor=inherit;" parent="t63ynqAqvGX-83WkG_3k-34" vertex="1">
          <mxGeometry y="120" width="210" height="8" as="geometry" />
        </mxCell>
        <mxCell id="t63ynqAqvGX-83WkG_3k-37" value="animal(id, string, datetime, TypeOf)&lt;br&gt;getName(): string&lt;br&gt;getBirthday() :datetime&lt;br&gt;getClass(): string&lt;br&gt;setClass(): void&lt;br&gt;addCommands(): void&lt;br&gt;" style="text;strokeColor=none;fillColor=none;align=left;verticalAlign=top;spacingLeft=4;spacingRight=4;overflow=hidden;rotatable=0;points=[[0,0.5],[1,0.5]];portConstraint=eastwest;whiteSpace=wrap;html=1;" parent="t63ynqAqvGX-83WkG_3k-34" vertex="1">
          <mxGeometry y="128" width="210" height="102" as="geometry" />
        </mxCell>
        <mxCell id="JCwZHBCJcjAVJVvUWBcN-22" style="edgeStyle=orthogonalEdgeStyle;rounded=0;orthogonalLoop=1;jettySize=auto;html=1;exitX=0.25;exitY=1;exitDx=0;exitDy=0;" edge="1" parent="1" source="JCwZHBCJcjAVJVvUWBcN-1" target="JCwZHBCJcjAVJVvUWBcN-10">
          <mxGeometry relative="1" as="geometry" />
        </mxCell>
        <mxCell id="JCwZHBCJcjAVJVvUWBcN-25" value="Extends" style="edgeLabel;html=1;align=center;verticalAlign=middle;resizable=0;points=[];" vertex="1" connectable="0" parent="JCwZHBCJcjAVJVvUWBcN-22">
          <mxGeometry x="0.1243" y="-1" relative="1" as="geometry">
            <mxPoint as="offset" />
          </mxGeometry>
        </mxCell>
        <mxCell id="JCwZHBCJcjAVJVvUWBcN-23" style="edgeStyle=orthogonalEdgeStyle;rounded=0;orthogonalLoop=1;jettySize=auto;html=1;exitX=0.5;exitY=1;exitDx=0;exitDy=0;entryX=0.5;entryY=0;entryDx=0;entryDy=0;" edge="1" parent="1" source="JCwZHBCJcjAVJVvUWBcN-1" target="JCwZHBCJcjAVJVvUWBcN-14">
          <mxGeometry relative="1" as="geometry" />
        </mxCell>
        <mxCell id="JCwZHBCJcjAVJVvUWBcN-26" value="Extends" style="edgeLabel;html=1;align=center;verticalAlign=middle;resizable=0;points=[];" vertex="1" connectable="0" parent="JCwZHBCJcjAVJVvUWBcN-23">
          <mxGeometry x="0.0588" y="-3" relative="1" as="geometry">
            <mxPoint as="offset" />
          </mxGeometry>
        </mxCell>
        <mxCell id="JCwZHBCJcjAVJVvUWBcN-24" style="edgeStyle=orthogonalEdgeStyle;rounded=0;orthogonalLoop=1;jettySize=auto;html=1;exitX=0.75;exitY=1;exitDx=0;exitDy=0;entryX=0.5;entryY=0;entryDx=0;entryDy=0;" edge="1" parent="1" source="JCwZHBCJcjAVJVvUWBcN-1" target="JCwZHBCJcjAVJVvUWBcN-18">
          <mxGeometry relative="1" as="geometry" />
        </mxCell>
        <mxCell id="JCwZHBCJcjAVJVvUWBcN-27" value="Extends" style="edgeLabel;html=1;align=center;verticalAlign=middle;resizable=0;points=[];" vertex="1" connectable="0" parent="JCwZHBCJcjAVJVvUWBcN-24">
          <mxGeometry x="0.1864" y="-2" relative="1" as="geometry">
            <mxPoint x="-14" y="-3" as="offset" />
          </mxGeometry>
        </mxCell>
        <mxCell id="JCwZHBCJcjAVJVvUWBcN-1" value="Pets&lt;br&gt;(abstract)" style="swimlane;fontStyle=1;align=center;verticalAlign=top;childLayout=stackLayout;horizontal=1;startSize=40;horizontalStack=0;resizeParent=1;resizeParentMax=0;resizeLast=0;collapsible=1;marginBottom=0;whiteSpace=wrap;html=1;" vertex="1" parent="1">
          <mxGeometry x="103" y="300" width="160" height="48" as="geometry" />
        </mxCell>
        <mxCell id="JCwZHBCJcjAVJVvUWBcN-3" value="" style="line;strokeWidth=1;fillColor=none;align=left;verticalAlign=middle;spacingTop=-1;spacingLeft=3;spacingRight=3;rotatable=0;labelPosition=right;points=[];portConstraint=eastwest;strokeColor=inherit;" vertex="1" parent="JCwZHBCJcjAVJVvUWBcN-1">
          <mxGeometry y="40" width="160" height="8" as="geometry" />
        </mxCell>
        <mxCell id="JCwZHBCJcjAVJVvUWBcN-37" style="edgeStyle=orthogonalEdgeStyle;rounded=0;orthogonalLoop=1;jettySize=auto;html=1;exitX=0.5;exitY=1;exitDx=0;exitDy=0;entryX=0.5;entryY=0;entryDx=0;entryDy=0;" edge="1" parent="1" source="JCwZHBCJcjAVJVvUWBcN-5" target="JCwZHBCJcjAVJVvUWBcN-30">
          <mxGeometry relative="1" as="geometry" />
        </mxCell>
        <mxCell id="JCwZHBCJcjAVJVvUWBcN-40" value="Extends" style="edgeLabel;html=1;align=center;verticalAlign=middle;resizable=0;points=[];" vertex="1" connectable="0" parent="JCwZHBCJcjAVJVvUWBcN-37">
          <mxGeometry x="-0.0159" y="-1" relative="1" as="geometry">
            <mxPoint as="offset" />
          </mxGeometry>
        </mxCell>
        <mxCell id="JCwZHBCJcjAVJVvUWBcN-38" style="edgeStyle=orthogonalEdgeStyle;rounded=0;orthogonalLoop=1;jettySize=auto;html=1;exitX=0.75;exitY=1;exitDx=0;exitDy=0;entryX=0.5;entryY=0;entryDx=0;entryDy=0;" edge="1" parent="1" source="JCwZHBCJcjAVJVvUWBcN-5" target="JCwZHBCJcjAVJVvUWBcN-32">
          <mxGeometry relative="1" as="geometry" />
        </mxCell>
        <mxCell id="JCwZHBCJcjAVJVvUWBcN-41" value="Extends" style="edgeLabel;html=1;align=center;verticalAlign=middle;resizable=0;points=[];" vertex="1" connectable="0" parent="JCwZHBCJcjAVJVvUWBcN-38">
          <mxGeometry x="-0.0786" relative="1" as="geometry">
            <mxPoint x="10" y="1" as="offset" />
          </mxGeometry>
        </mxCell>
        <mxCell id="JCwZHBCJcjAVJVvUWBcN-5" value="PackAnimals&lt;br&gt;(abstract)" style="swimlane;fontStyle=1;align=center;verticalAlign=top;childLayout=stackLayout;horizontal=1;startSize=40;horizontalStack=0;resizeParent=1;resizeParentMax=0;resizeLast=0;collapsible=1;marginBottom=0;whiteSpace=wrap;html=1;" vertex="1" parent="1">
          <mxGeometry x="544" y="300" width="160" height="118" as="geometry" />
        </mxCell>
        <mxCell id="JCwZHBCJcjAVJVvUWBcN-6" value="Сapacity: float" style="text;strokeColor=none;fillColor=none;align=left;verticalAlign=top;spacingLeft=4;spacingRight=4;overflow=hidden;rotatable=0;points=[[0,0.5],[1,0.5]];portConstraint=eastwest;whiteSpace=wrap;html=1;" vertex="1" parent="JCwZHBCJcjAVJVvUWBcN-5">
          <mxGeometry y="40" width="160" height="30" as="geometry" />
        </mxCell>
        <mxCell id="JCwZHBCJcjAVJVvUWBcN-8" value="getСapacity(): float&lt;br&gt;setСapacity(): float" style="text;strokeColor=none;fillColor=none;align=left;verticalAlign=top;spacingLeft=4;spacingRight=4;overflow=hidden;rotatable=0;points=[[0,0.5],[1,0.5]];portConstraint=eastwest;whiteSpace=wrap;html=1;" vertex="1" parent="JCwZHBCJcjAVJVvUWBcN-5">
          <mxGeometry y="70" width="160" height="40" as="geometry" />
        </mxCell>
        <mxCell id="JCwZHBCJcjAVJVvUWBcN-7" value="" style="line;strokeWidth=1;fillColor=none;align=left;verticalAlign=middle;spacingTop=-1;spacingLeft=3;spacingRight=3;rotatable=0;labelPosition=right;points=[];portConstraint=eastwest;strokeColor=inherit;" vertex="1" parent="JCwZHBCJcjAVJVvUWBcN-5">
          <mxGeometry y="110" width="160" height="8" as="geometry" />
        </mxCell>
        <mxCell id="JCwZHBCJcjAVJVvUWBcN-10" value="Dogs" style="swimlane;fontStyle=1;align=center;verticalAlign=top;childLayout=stackLayout;horizontal=1;startSize=26;horizontalStack=0;resizeParent=1;resizeParentMax=0;resizeLast=0;collapsible=1;marginBottom=0;whiteSpace=wrap;html=1;" vertex="1" parent="1">
          <mxGeometry y="450" width="120" height="34" as="geometry" />
        </mxCell>
        <mxCell id="JCwZHBCJcjAVJVvUWBcN-12" value="" style="line;strokeWidth=1;fillColor=none;align=left;verticalAlign=middle;spacingTop=-1;spacingLeft=3;spacingRight=3;rotatable=0;labelPosition=right;points=[];portConstraint=eastwest;strokeColor=inherit;" vertex="1" parent="JCwZHBCJcjAVJVvUWBcN-10">
          <mxGeometry y="26" width="120" height="8" as="geometry" />
        </mxCell>
        <mxCell id="JCwZHBCJcjAVJVvUWBcN-14" value="Cats" style="swimlane;fontStyle=1;align=center;verticalAlign=top;childLayout=stackLayout;horizontal=1;startSize=26;horizontalStack=0;resizeParent=1;resizeParentMax=0;resizeLast=0;collapsible=1;marginBottom=0;whiteSpace=wrap;html=1;" vertex="1" parent="1">
          <mxGeometry x="128" y="450" width="110" height="34" as="geometry" />
        </mxCell>
        <mxCell id="JCwZHBCJcjAVJVvUWBcN-16" value="" style="line;strokeWidth=1;fillColor=none;align=left;verticalAlign=middle;spacingTop=-1;spacingLeft=3;spacingRight=3;rotatable=0;labelPosition=right;points=[];portConstraint=eastwest;strokeColor=inherit;" vertex="1" parent="JCwZHBCJcjAVJVvUWBcN-14">
          <mxGeometry y="26" width="110" height="8" as="geometry" />
        </mxCell>
        <mxCell id="JCwZHBCJcjAVJVvUWBcN-18" value="Hamster" style="swimlane;fontStyle=1;align=center;verticalAlign=top;childLayout=stackLayout;horizontal=1;startSize=26;horizontalStack=0;resizeParent=1;resizeParentMax=0;resizeLast=0;collapsible=1;marginBottom=0;whiteSpace=wrap;html=1;" vertex="1" parent="1">
          <mxGeometry x="250" y="450" width="96" height="34" as="geometry" />
        </mxCell>
        <mxCell id="JCwZHBCJcjAVJVvUWBcN-20" value="" style="line;strokeWidth=1;fillColor=none;align=left;verticalAlign=middle;spacingTop=-1;spacingLeft=3;spacingRight=3;rotatable=0;labelPosition=right;points=[];portConstraint=eastwest;strokeColor=inherit;" vertex="1" parent="JCwZHBCJcjAVJVvUWBcN-18">
          <mxGeometry y="26" width="96" height="8" as="geometry" />
        </mxCell>
        <mxCell id="JCwZHBCJcjAVJVvUWBcN-28" value="Horses" style="swimlane;fontStyle=1;align=center;verticalAlign=top;childLayout=stackLayout;horizontal=1;startSize=26;horizontalStack=0;resizeParent=1;resizeParentMax=0;resizeLast=0;collapsible=1;marginBottom=0;whiteSpace=wrap;html=1;" vertex="1" parent="1">
          <mxGeometry x="475" y="480" width="96" height="34" as="geometry" />
        </mxCell>
        <mxCell id="JCwZHBCJcjAVJVvUWBcN-29" value="" style="line;strokeWidth=1;fillColor=none;align=left;verticalAlign=middle;spacingTop=-1;spacingLeft=3;spacingRight=3;rotatable=0;labelPosition=right;points=[];portConstraint=eastwest;strokeColor=inherit;" vertex="1" parent="JCwZHBCJcjAVJVvUWBcN-28">
          <mxGeometry y="26" width="96" height="8" as="geometry" />
        </mxCell>
        <mxCell id="JCwZHBCJcjAVJVvUWBcN-30" value="Camels" style="swimlane;fontStyle=1;align=center;verticalAlign=top;childLayout=stackLayout;horizontal=1;startSize=26;horizontalStack=0;resizeParent=1;resizeParentMax=0;resizeLast=0;collapsible=1;marginBottom=0;whiteSpace=wrap;html=1;" vertex="1" parent="1">
          <mxGeometry x="577" y="480" width="96" height="34" as="geometry" />
        </mxCell>
        <mxCell id="JCwZHBCJcjAVJVvUWBcN-31" value="" style="line;strokeWidth=1;fillColor=none;align=left;verticalAlign=middle;spacingTop=-1;spacingLeft=3;spacingRight=3;rotatable=0;labelPosition=right;points=[];portConstraint=eastwest;strokeColor=inherit;" vertex="1" parent="JCwZHBCJcjAVJVvUWBcN-30">
          <mxGeometry y="26" width="96" height="8" as="geometry" />
        </mxCell>
        <mxCell id="JCwZHBCJcjAVJVvUWBcN-32" value="Donkeys" style="swimlane;fontStyle=1;align=center;verticalAlign=top;childLayout=stackLayout;horizontal=1;startSize=26;horizontalStack=0;resizeParent=1;resizeParentMax=0;resizeLast=0;collapsible=1;marginBottom=0;whiteSpace=wrap;html=1;" vertex="1" parent="1">
          <mxGeometry x="677" y="480" width="96" height="34" as="geometry" />
        </mxCell>
        <mxCell id="JCwZHBCJcjAVJVvUWBcN-33" value="" style="line;strokeWidth=1;fillColor=none;align=left;verticalAlign=middle;spacingTop=-1;spacingLeft=3;spacingRight=3;rotatable=0;labelPosition=right;points=[];portConstraint=eastwest;strokeColor=inherit;" vertex="1" parent="JCwZHBCJcjAVJVvUWBcN-32">
          <mxGeometry y="26" width="96" height="8" as="geometry" />
        </mxCell>
        <mxCell id="JCwZHBCJcjAVJVvUWBcN-36" style="edgeStyle=orthogonalEdgeStyle;rounded=0;orthogonalLoop=1;jettySize=auto;html=1;entryX=0.5;entryY=0;entryDx=0;entryDy=0;exitX=0.25;exitY=1;exitDx=0;exitDy=0;" edge="1" parent="1" source="JCwZHBCJcjAVJVvUWBcN-5" target="JCwZHBCJcjAVJVvUWBcN-28">
          <mxGeometry relative="1" as="geometry" />
        </mxCell>
        <mxCell id="JCwZHBCJcjAVJVvUWBcN-39" value="Extends" style="edgeLabel;html=1;align=center;verticalAlign=middle;resizable=0;points=[];" vertex="1" connectable="0" parent="JCwZHBCJcjAVJVvUWBcN-36">
          <mxGeometry x="-0.1235" relative="1" as="geometry">
            <mxPoint x="-11" as="offset" />
          </mxGeometry>
        </mxCell>
      </root>
    </mxGraphModel>
  </diagram>
</mxfile>
